<svg width="57" height="22" viewBox="0 0 57 22" fill="none" xmlns="http://www.w3.org/2000/svg">
<path d="M2 15.6185L2.67949 14.0005C3.35897 12.3825 4.71795 9.1465 6.07692 10.0982C7.4359 11.0499 8.79487 16.1893 10.1538 15.159C11.5128 14.1287 12.8718 6.9287 14.2308 7.47012C15.5897 8.01154 17.0678 20.6417 18.4267 19.8388C19.7857 19.036 21.0256 4.80027 22.3846 2.6436C23.7436 0.486931 25.1026 6.06207 26.4615 7.88345C27.8205 9.70483 29.1795 7.77245 30.5385 5.45237C31.8974 3.13228 33.2564 0.424494 34.6154 3.22524C35.9744 6.02598 36.3513 19.5091 37.7103 19.8388C39.0692 20.1685 41.4103 7.34479 42.7692 4.02063C44.1282 0.696465 45.4872 1.69801 46.8462 5.38858C48.2051 9.07915 49.5641 15.4587 50.9231 18.2461C52.282 21.0335 53.641 20.2286 55 17.7207" stroke="black" stroke-width="3"/>
</svg>
