<svg width="150" height="21" viewBox="0 0 150 21" fill="none" xmlns="http://www.w3.org/2000/svg">
<path d="M12 0L14.6942 7.25532H23.4127L16.3593 11.7394L19.0534 18.9947L12 14.5106L4.94658 18.9947L7.64074 11.7394L0.587322 7.25532H9.30583L12 0Z" fill="#1BFFC3"/>
<path d="M44.6666 0L47.3608 7.25532H56.0793L49.0259 11.7394L51.72 18.9947L44.6666 14.5106L37.6132 18.9947L40.3074 11.7394L33.2539 7.25532H41.9725L44.6666 0Z" fill="#1BFFC3"/>
<path d="M77.3334 0L80.0275 7.25532H88.7461L81.6926 11.7394L84.3868 18.9947L77.3334 14.5106L70.28 18.9947L72.9741 11.7394L65.9207 7.25532H74.6392L77.3334 0Z" fill="#1BFFC3"/>
<path d="M109.667 0L112.436 7.25532H121.396L114.147 11.7394L116.916 18.9947L109.667 14.5106L102.417 18.9947L105.186 11.7394L97.937 7.25532H106.898L109.667 0Z" fill="#1BFFC3"/>
<path d="M138.333 1.47245L140.482 7.42511L140.602 7.75532H140.953H147.751L142.298 11.3209L141.967 11.5373L142.101 11.9091L144.213 17.7577L138.607 14.0922L138.333 13.9132L138.06 14.0922L132.454 17.7577L134.565 11.9091L134.7 11.5373L134.369 11.3209L128.916 7.75532H135.714H136.065L136.184 7.42511L138.333 1.47245Z" stroke="#1BFFC3"/>
</svg>
