<svg width="150" height="21" viewBox="0 0 150 21" fill="none" xmlns="http://www.w3.org/2000/svg">
<path d="M11.8421 0L14.5008 7.25532H23.1046L16.144 11.7394L18.8027 18.9947L11.8421 14.5106L4.88149 18.9947L7.54021 11.7394L0.579594 7.25532H9.18339L11.8421 0Z" fill="#1BFFC3"/>
<path d="M44.0789 0L46.7376 7.25532H55.3414L48.3808 11.7394L51.0395 18.9947L44.0789 14.5106L37.1183 18.9947L39.777 11.7394L32.8164 7.25532H41.4202L44.0789 0Z" fill="#1BFFC3"/>
<path d="M76.3157 0L78.9745 7.25532H87.5782L80.6176 11.7394L83.2764 18.9947L76.3157 14.5106L69.3551 18.9947L72.0138 11.7394L65.0532 7.25532H73.657L76.3157 0Z" fill="#1BFFC3"/>
<path d="M108.224 0L110.956 7.25532H119.799L112.645 11.7394L115.378 18.9947L108.224 14.5106L101.07 18.9947L103.802 11.7394L96.6483 7.25532H105.491L108.224 0Z" fill="#1BFFC3"/>
<path d="M138.158 0L140.817 7.25532H149.42L142.46 11.7394L145.119 18.9947L138.158 14.5106L131.197 18.9947L133.856 11.7394L126.895 7.25532H135.499L138.158 0Z" fill="#1BFFC3"/>
</svg>
