<svg width="25" height="27" viewBox="0 0 25 27" fill="none" xmlns="http://www.w3.org/2000/svg">
<path d="M22.5105 20.5067C24.1 19.0253 25 17.0506 25 15.0014C25 12.8237 24.0251 10.787 22.2549 9.26616C20.532 7.78653 18.2515 6.97156 15.8332 6.97156C13.4149 6.97156 11.1344 7.78653 9.41175 9.26626C7.64151 10.787 6.66663 12.8237 6.66663 15.0014C6.66663 17.1792 7.64151 19.2159 9.41175 20.7367C11.1344 22.2164 13.4149 23.0314 15.8332 23.0314C16.1554 23.0314 16.4796 23.0165 16.8012 22.9869L17.3504 23.4848C19.2427 25.1995 21.6626 26.1435 24.1664 26.1436H24.9998V24.2886L24.7557 24.0335C23.7929 23.0236 23.0299 21.8252 22.5105 20.5067ZM18.442 22.1676L17.3398 21.1686L16.9724 21.2157C16.5944 21.2641 16.214 21.2883 15.8332 21.2883C11.6978 21.2883 8.33328 18.468 8.33328 15.0014C8.33328 11.5348 11.6978 8.71447 15.8332 8.71447C19.9686 8.71447 23.3331 11.5348 23.3331 15.0014C23.3331 16.7285 22.5092 18.341 21.013 19.5416L20.5331 19.9267L20.7545 20.5822C21.2084 21.921 21.8755 23.1698 22.7276 24.276C21.1407 23.999 19.6578 23.2694 18.442 22.1676Z" fill="#1BFFC3"/>
<path d="M2.30128 16.4202C3.08134 15.3876 3.6938 14.2279 4.11417 12.9876L4.33396 12.3354L3.85444 11.9505C2.44362 10.8184 1.66665 9.29887 1.66665 7.67192C1.66665 4.40265 4.84417 1.74291 8.74991 1.74291C11.6232 1.74291 14.1023 3.18245 15.2122 5.24508C15.4183 5.23462 15.6253 5.22874 15.8332 5.22874C16.2508 5.22874 16.6645 5.24992 17.0745 5.2923C16.6456 4.13027 15.9007 3.06949 14.8766 2.18986C13.2328 0.77772 11.0572 0 8.74991 0C6.44264 0 4.26704 0.77772 2.6231 2.18986C0.931553 3.64296 0 5.58985 0 7.67192C0 9.6218 0.851658 11.5006 2.35675 12.9139C1.86557 14.15 1.14788 15.2737 0.244112 16.2216L0 16.4768V18.3006H0.833324C2.3743 18.3004 3.89409 17.9251 5.27239 17.2045C5.12125 16.6054 5.0327 15.991 5.00828 15.3719C4.17171 15.8847 3.25541 16.2395 2.30128 16.4202Z" fill="#1BFFC3"/>
</svg>
