<svg width="26" height="29" viewBox="0 0 26 29" fill="none" xmlns="http://www.w3.org/2000/svg">
<path d="M12.9999 9.03662C12.0025 9.03662 11.0275 9.34346 10.1982 9.91834C9.36885 10.4932 8.72248 11.3103 8.34079 12.2663C7.95909 13.2223 7.85923 14.2743 8.05381 15.2891C8.2484 16.304 8.72869 17.2362 9.43397 17.9679C10.1392 18.6996 11.0378 19.1979 12.0161 19.3998C12.9943 19.6016 14.0083 19.498 14.9298 19.102C15.8513 18.706 16.6389 18.0355 17.193 17.1751C17.7471 16.3147 18.0429 15.3032 18.0429 14.2685C18.0414 12.8814 17.5096 11.5515 16.5642 10.5707C15.6187 9.58991 14.3369 9.03819 12.9999 9.03662ZM12.9999 17.5978C12.3652 17.5978 11.7447 17.4025 11.217 17.0367C10.6892 16.6709 10.2779 16.1509 10.035 15.5425C9.79211 14.9342 9.72856 14.2648 9.85239 13.6189C9.97621 12.9731 10.2819 12.3799 10.7307 11.9142C11.1795 11.4486 11.7513 11.1315 12.3738 11.0031C12.9963 10.8746 13.6416 10.9405 14.228 11.1925C14.8144 11.4445 15.3156 11.8713 15.6682 12.4188C16.0209 12.9663 16.2091 13.61 16.2091 14.2685C16.2081 15.1511 15.8697 15.9974 15.2681 16.6216C14.6664 17.2457 13.8507 17.5968 12.9999 17.5978Z" fill="#1BFFC3"/>
<path d="M25.5815 18.2115L23.7609 16.6566C24.0836 15.0822 24.0836 13.455 23.7609 11.8807L25.5815 10.3258C25.7915 10.1473 25.9333 9.8971 25.9817 9.61998C26.0301 9.34285 25.9818 9.05692 25.8454 8.81338L23.9766 5.45532C23.8415 5.21098 23.6269 5.02455 23.3713 4.92945C23.1158 4.83434 22.8359 4.83677 22.5819 4.9363L20.3721 5.79521C19.2209 4.71619 17.8628 3.90187 16.387 3.40569L15.9992 0.993636C15.9553 0.715655 15.8175 0.46298 15.6103 0.2809C15.4031 0.0988194 15.1402 -0.000761991 14.8687 4.39078e-06H11.131C10.8595 -0.000752238 10.5966 0.0988251 10.3895 0.280891C10.1823 0.462958 10.0444 0.715612 10.0005 0.993577L9.61299 3.40569C8.13711 3.90186 6.77904 4.71618 5.62788 5.79521L3.41785 4.93618C3.16386 4.83671 2.88404 4.83432 2.62851 4.92944C2.37298 5.02456 2.15844 5.21096 2.02335 5.45526L0.154519 8.81356C0.0182216 9.05711 -0.0300459 9.34306 0.0183614 9.62017C0.0667686 9.89728 0.208688 10.1475 0.418703 10.3259L2.23916 11.8807C1.91641 13.455 1.91641 15.0822 2.23916 16.6566L0.418531 18.2115C0.20855 18.39 0.066669 18.6402 0.0182941 18.9173C-0.0300807 19.1944 0.01821 19.4803 0.154519 19.7239L2.0234 23.0819C2.15852 23.3263 2.37308 23.5127 2.62865 23.6078C2.88421 23.7029 3.16408 23.7005 3.41808 23.601L5.62794 22.7421C6.7791 23.8211 8.13717 24.6354 9.61304 25.1316L10.0006 27.5436C10.0445 27.8216 10.1823 28.0743 10.3895 28.2563C10.5966 28.4384 10.8595 28.538 11.131 28.5373H14.8687C15.1402 28.538 15.4031 28.4385 15.6103 28.2564C15.8174 28.0743 15.9553 27.8217 15.9992 27.5437L16.3868 25.1316C17.8627 24.6354 19.2207 23.8211 20.3719 22.7421L22.5819 23.6011C22.8359 23.7005 23.1157 23.7029 23.3712 23.6078C23.6267 23.5127 23.8413 23.3263 23.9764 23.082L25.8451 19.7237C25.9814 19.4802 26.0298 19.1944 25.9815 18.9173C25.9332 18.6402 25.7914 18.39 25.5815 18.2115ZM22.6797 21.6074L19.9227 20.5358L19.5053 20.9719C18.3566 22.1729 16.9199 23.0344 15.3434 23.4673L14.7703 23.624L14.2863 26.6348H11.7138L11.2301 23.624L10.657 23.4673C9.08043 23.0344 7.64373 22.1729 6.4951 20.9719L6.07762 20.5358L3.3202 21.6074L2.03418 19.2961L4.30518 17.3565L4.15046 16.7636C3.72494 15.1296 3.72494 13.4077 4.15046 11.7737L4.30518 11.1808L2.03418 9.24126L3.32048 6.92986L6.07745 8.00144L6.49493 7.56541C7.64355 6.36432 9.08026 5.5029 10.6568 5.07L11.2299 4.91329L11.7136 1.90249H14.2863L14.7701 4.91329L15.3432 5.07C16.9198 5.5029 18.3565 6.36432 19.5051 7.56541L19.9226 8.00144L22.6795 6.92986L23.9659 9.2412L21.6949 11.1808L21.8496 11.7737C22.2751 13.4077 22.2751 15.1296 21.8496 16.7636L21.6949 17.3565L23.9659 19.296L22.6797 21.6074Z" fill="#1BFFC3"/>
</svg>
