<svg width="360" height="51" viewBox="0 0 360 51" fill="none" xmlns="http://www.w3.org/2000/svg">
<path fill-rule="evenodd" clip-rule="evenodd" d="M360 9.08799H344.958C329.917 9.08799 299.833 9.08799 269.75 17.176C239.667 25.264 209.583 41.44 179.5 48.18C149.417 54.92 119.333 52.224 89.25 44.136C59.1667 36.048 29.0833 22.568 14.0417 15.828L-1 9.08799V1H14.0417C29.0833 1 59.1667 1 89.25 1C119.333 1 149.417 1 179.5 1C209.583 1 239.667 1 269.75 1C299.833 1 329.917 1 344.958 1H360V9.08799Z" fill="#1BFFC3"/>
<path fill-rule="evenodd" clip-rule="evenodd" d="M361 5.392H345.5C330 5.392 299 5.39199 268 10.784C237 16.176 206 26.96 175 31.4533C144 35.9466 113 34.1493 82 28.7573C51 23.3653 20 14.3787 4.5 9.88533L-11 5.392V0H4.5C20 0 51 0 82 0C113 0 144 0 175 0C206 0 237 0 268 0C299 0 330 0 345.5 0H361V5.392Z" fill="black"/>
</svg>
