<svg width="25" height="23" viewBox="0 0 25 23" fill="none" xmlns="http://www.w3.org/2000/svg">
<path d="M12.4986 0C9.2455 0 8.84007 0.0150956 7.56695 0.0668521C6.28859 0.127235 5.42388 0.317727 4.66091 0.602388C3.874 0.89855 3.20377 1.29176 2.54178 1.93152C1.8753 2.5677 1.46239 3.21178 1.1587 3.968C0.862483 4.70121 0.664259 5.53219 0.601426 6.76069C0.543829 7.98487 0.53186 8.37377 0.53186 11.5C0.53186 14.6262 0.547569 15.0158 0.601426 16.2393C0.664259 17.4642 0.862483 18.2988 1.1587 19.032C1.46688 19.7882 1.87604 20.4323 2.54178 21.0685C3.20377 21.709 3.874 22.1058 4.66091 22.3976C5.42388 22.6787 6.29233 22.8728 7.56695 22.9331C8.84082 22.9885 9.2455 23 12.4986 23C15.7517 23 16.1572 22.9849 17.4303 22.9331C18.7049 22.8728 19.5734 22.678 20.3363 22.3976C21.1232 22.1014 21.7935 21.7082 22.4555 21.0685C23.1219 20.4323 23.5348 19.7918 23.8385 19.032C24.131 18.2988 24.333 17.4642 24.3958 16.2393C24.4534 15.0151 24.4654 14.6262 24.4654 11.5C24.4654 8.37377 24.4497 7.98415 24.3958 6.76069C24.333 5.53579 24.1303 4.6969 23.8385 3.968C23.5304 3.21178 23.1212 2.5677 22.4555 1.93152C21.7935 1.29104 21.127 0.894237 20.3363 0.602388C19.5734 0.317727 18.7049 0.127235 17.4303 0.0668521C16.1564 0.0115014 15.7517 0 12.4986 0V0ZM12.4986 2.07026C15.6934 2.07026 16.0749 2.08535 17.3375 2.13711C18.5022 2.18959 19.1365 2.37648 19.5576 2.53463C20.1194 2.74381 20.5121 2.99109 20.937 3.39508C21.3536 3.79547 21.6109 4.17718 21.8286 4.71703C21.9932 5.12173 22.1877 5.73131 22.2423 6.85054C22.2961 8.06394 22.3118 8.43127 22.3118 11.5007C22.3118 14.5702 22.2961 14.9375 22.2378 16.1509C22.175 17.2701 21.9805 17.8797 21.8167 18.2844C21.59 18.8243 21.3372 19.2016 20.9198 19.61C20.4986 20.0103 20.0977 20.2576 19.5404 20.4668C19.1245 20.625 18.4812 20.8119 17.3121 20.8643C16.0427 20.9161 15.6687 20.9312 12.4657 20.9312C9.2627 20.9312 8.88944 20.9161 7.61856 20.86C6.4539 20.7996 5.81136 20.6127 5.39022 20.4553C4.82173 20.2375 4.43202 19.9945 4.01462 19.5934C3.59349 19.1887 3.3257 18.8034 3.11925 18.2679C2.95169 17.8682 2.7602 17.25 2.69811 16.1265C2.65548 14.921 2.63528 14.5472 2.63528 11.4835C2.63528 8.42121 2.65548 8.04669 2.69811 6.8261C2.7602 5.70256 2.95169 5.08579 3.11925 4.68468C3.3257 4.13764 3.59424 3.76385 4.01462 3.35914C4.43127 2.95874 4.82173 2.69996 5.39022 2.49725C5.81136 2.33982 6.43819 2.15293 7.60734 2.09686C8.87673 2.05301 9.25073 2.03719 12.4493 2.03719L12.4986 2.07026ZM12.4986 5.59761C9.10188 5.59761 6.35516 8.24078 6.35516 11.5014C6.35516 14.7657 9.10562 17.4053 12.4986 17.4053C15.8954 17.4053 18.6421 14.7621 18.6421 11.5014C18.6421 8.23719 15.8916 5.59761 12.4986 5.59761V5.59761ZM12.4986 15.335C10.2935 15.335 8.50945 13.6206 8.50945 11.5014C8.50945 9.3823 10.2935 7.66786 12.4986 7.66786C14.7038 7.66786 16.4878 9.3823 16.4878 11.5014C16.4878 13.6206 14.7038 15.335 12.4986 15.335V15.335ZM20.3259 5.36183C20.3259 6.12595 19.6788 6.74272 18.8874 6.74272C18.0923 6.74272 17.4505 6.12523 17.4505 5.36183C17.4505 4.60201 18.0968 3.98381 18.8874 3.98381C19.6781 3.98381 20.3259 4.60201 20.3259 5.36183V5.36183Z" fill="#1BFFC3"/>
</svg>
