<svg width="18" height="22" viewBox="0 0 18 22" fill="none" xmlns="http://www.w3.org/2000/svg">
<path d="M9.39287 5.16724C8.77593 5.16724 8.17284 5.34355 7.65988 5.67388C7.14691 6.00421 6.7471 6.47373 6.511 7.02305C6.27491 7.57237 6.21314 8.17683 6.3335 8.75999C6.45386 9.34315 6.75094 9.87881 7.18719 10.2992C7.62343 10.7197 8.17924 11.006 8.78433 11.122C9.38941 11.238 10.0166 11.1785 10.5866 10.9509C11.1566 10.7234 11.6437 10.3381 11.9865 9.84369C12.3292 9.34931 12.5122 8.76808 12.5122 8.1735C12.5112 7.37647 12.1823 6.61234 11.5975 6.04875C11.0127 5.48517 10.2199 5.16814 9.39287 5.16724ZM9.39287 9.67663C9.0844 9.67663 8.78286 9.58847 8.52638 9.42331C8.26989 9.25814 8.06999 9.02338 7.95194 8.74872C7.83389 8.47406 7.80301 8.17183 7.86319 7.88025C7.92336 7.58867 8.07191 7.32084 8.29003 7.11062C8.50815 6.90041 8.78606 6.75725 9.0886 6.69925C9.39114 6.64125 9.70474 6.67102 9.98973 6.78479C10.2747 6.89855 10.5183 7.09121 10.6897 7.3384C10.8611 7.58559 10.9525 7.87621 10.9525 8.1735C10.9521 8.57201 10.7876 8.95407 10.4952 9.23586C10.2028 9.51766 9.80637 9.67617 9.39287 9.67663Z" fill="#1BFFC3"/>
<path d="M15.387 2.3921C13.905 0.964144 11.9266 0.115881 9.83382 0.0110253C7.741 -0.0938306 5.68207 0.552154 4.05439 1.8243C2.42671 3.09645 1.34568 4.90458 1.01993 6.89972C0.69418 8.89486 1.14681 10.9356 2.29046 12.628L8.18338 21.3468C8.31451 21.5408 8.49382 21.7002 8.70504 21.8105C8.91626 21.9208 9.15271 21.9786 9.39296 21.9786C9.63321 21.9786 9.86967 21.9208 10.0809 21.8105C10.2921 21.7002 10.4714 21.5408 10.6025 21.3468L16.4957 12.628C17.5568 11.058 18.0258 9.18422 17.824 7.32065C17.6221 5.45708 16.7617 3.71701 15.387 2.3921ZM15.1889 11.8075L9.39299 20.3824L3.59706 11.8075C1.82295 9.18273 2.20346 5.6701 4.50181 3.45495C5.14412 2.8359 5.90666 2.34484 6.74589 2.00981C7.58512 1.67478 8.48461 1.50235 9.39299 1.50235C10.3014 1.50235 11.2009 1.67478 12.0401 2.00981C12.8793 2.34484 13.6419 2.8359 14.2842 3.45495C16.5825 5.6701 16.963 9.18273 15.1889 11.8075Z" fill="#1BFFC3"/>
</svg>
