<svg width="22" height="20" viewBox="0 0 22 20" fill="none" xmlns="http://www.w3.org/2000/svg">
<path d="M21.271 2.07826L21.2364 2.05762L16.8632 0L12.1431 6.0105L14.3147 8.77597C14.2497 9.8189 13.7866 10.8029 13.013 11.5416C12.2395 12.2804 11.2092 12.7227 10.1171 12.7847L7.22147 10.7107L0.927979 15.2185L3.06456 19.3602L3.08254 19.3951L3.10421 19.4281C3.21823 19.6036 3.37737 19.7482 3.56649 19.8483C3.7556 19.9484 3.9684 20.0006 4.18462 20H5.31306C7.48733 20 9.6403 19.591 11.6491 18.7964C13.6578 18.0017 15.483 16.837 17.0205 15.3687C18.5579 13.9004 19.7775 12.1573 20.6095 10.2389C21.4416 8.32046 21.8698 6.26431 21.8698 4.18782V3.11008C21.8705 2.90359 21.8158 2.70036 21.711 2.51975C21.6062 2.33914 21.4547 2.18715 21.271 2.07826ZM20.2537 4.18782C20.2537 12.0556 13.5513 18.4566 5.31306 18.4566H4.39997L2.97043 15.685L7.22178 12.6399L9.58871 14.3352H9.85804C11.4702 14.3335 13.0157 13.7211 14.1557 12.6325C15.2956 11.5438 15.9368 10.0677 15.9386 8.52811V8.27089L14.1635 6.01046L17.3516 1.95054L20.2537 3.31603V4.18782Z" fill="#1BFFC3"/>
</svg>
