<svg width="25" height="21" viewBox="0 0 25 21" fill="none" xmlns="http://www.w3.org/2000/svg">
<path d="M24.5832 2.50208C23.7029 2.91868 22.7605 3.20531 21.7673 3.33529C22.7807 2.67889 23.5556 1.6406 23.925 0.403691C22.9744 1.00115 21.9228 1.43391 20.8047 1.67855C19.9132 0.648328 18.6387 0 17.2244 0C14.5132 0 12.3158 2.37128 12.3158 5.294C12.3158 5.71465 12.3629 6.11834 12.4444 6.50104C8.366 6.29516 4.75055 4.17982 2.33251 0.984198C1.90769 1.76251 1.66612 2.66678 1.66612 3.65098C1.66612 5.49262 2.53445 7.10738 3.84706 8.05686C3.04454 8.03183 2.28914 7.79204 1.62722 7.39723V7.46101C1.62722 10.0293 3.31753 12.1705 5.5613 12.6581C5.15218 12.7752 4.7154 12.843 4.27188 12.843C3.957 12.843 3.65634 12.8099 3.35642 12.7502C3.98767 14.8526 5.79465 16.3834 7.94866 16.4294C6.27407 17.8464 4.15146 18.6909 1.86432 18.6909C1.47465 18.6909 1.08573 18.6707 0.695312 18.6198C2.877 20.1216 5.4521 21 8.23362 21C17.2588 21 22.1906 12.9302 22.1906 5.94152C22.1906 5.71868 22.1906 5.49181 22.1749 5.26413C23.1375 4.52376 23.9707 3.58558 24.6288 2.52226L24.5832 2.50208Z" fill="#1BFFC3"/>
</svg>
