<svg width="360" height="38" viewBox="0 0 360 38" fill="none" xmlns="http://www.w3.org/2000/svg">
<path fill-rule="evenodd" clip-rule="evenodd" d="M361 18.0132L340.844 19.1236C320.989 20.234 280.677 22.4547 240.667 16.9028C200.656 11.351 160.344 -1.97355 120.333 0.247202C80.3225 2.46796 40.0108 20.234 20.1559 29.117L0 38H20.1559C40.0108 38 80.3225 38 120.333 38C160.344 38 200.656 38 240.667 38C280.677 38 320.989 38 340.844 38H361V18.0132Z" fill="#1BFFC3"/>
<path fill-rule="evenodd" clip-rule="evenodd" d="M360.5 24.3248L340.344 25.0846C320.489 25.8443 280.177 27.3637 240.167 23.5651C200.156 19.7665 159.844 10.6497 119.833 12.1691C79.8225 13.6886 39.5109 25.8443 19.6559 31.9221L-0.5 38H19.6559C39.5109 38 79.8225 38 119.833 38C159.844 38 200.156 38 240.167 38C280.177 38 320.489 38 340.344 38H360.5V24.3248Z" fill="black"/>
</svg>
