<svg width="360" height="93" viewBox="0 0 360 93" fill="none" xmlns="http://www.w3.org/2000/svg">
<path d="M0 2L3.54902 14.3627C7.09804 26.7254 14.1961 51.4507 21.2941 62.9494C28.3922 74.448 35.4902 72.7199 42.5882 62.0961C49.6863 51.4724 56.7843 31.9529 63.8824 34.0024C70.9804 36.0518 78.0784 59.6701 85.1765 69.7796C92.2745 79.889 99.3725 76.4896 106.471 68.0379C113.569 59.5862 120.667 46.0822 127.765 39.2754C134.863 32.4687 141.961 32.3591 149.059 38.2852C156.157 44.2112 163.255 56.1728 170.353 54.0811C177.451 51.9893 184.549 35.8442 191.647 38.4869C198.745 41.1296 205.843 62.5602 212.941 63.7346C220.039 64.9089 227.137 45.8271 234.235 40.4047C241.333 34.9823 248.431 43.2193 255.529 50.3454C262.627 57.4715 269.725 63.4866 276.824 65.3333C283.922 67.1801 291.02 64.8584 298.118 57.6706C305.216 50.4827 312.314 38.4287 319.412 31.1248C326.51 23.8209 333.608 21.2671 340.706 25.7595C347.804 30.2518 354.902 41.7903 358.451 47.5595L362 53.3287" stroke="#1BFFC3" stroke-opacity="0.3" stroke-width="6"/>
<path d="M362 2L353.381 15.8748C344.762 29.7495 327.524 57.499 310.286 70.6601C293.048 83.8212 275.81 82.3939 258.571 71.1551C241.333 59.9163 224.095 38.8661 206.857 41.6052C189.619 44.3443 172.381 70.8728 155.143 82.5017C137.905 94.1306 120.667 90.8599 103.429 82.0168C86.1905 73.1737 68.9524 58.7582 51.7143 51.7293C34.4762 44.7005 17.2381 45.0584 8.61908 45.2373L1.62125e-05 45.4162" stroke="#1BFFC3" stroke-width="5"/>
<g filter="url(#filter0_d_213_78)">
<path d="M46.632 68V50.96H50.568V68H46.632ZM73.4353 68H69.5953V60.92C69.5953 60.104 69.4433 59.504 69.1393 59.12C68.8353 58.736 68.4433 58.544 67.9633 58.544C67.4513 58.544 66.9473 58.752 66.4513 59.168C65.9553 59.584 65.6033 60.12 65.3953 60.776V68H61.5553V60.92C61.5553 60.088 61.4033 59.488 61.0993 59.12C60.7953 58.736 60.4033 58.544 59.9233 58.544C59.4273 58.544 58.9313 58.752 58.4353 59.168C57.9393 59.584 57.5793 60.12 57.3553 60.776V68H53.5153V55.4H56.9713V57.512C57.4353 56.76 58.0593 56.184 58.8433 55.784C59.6433 55.368 60.5713 55.16 61.6273 55.16C62.6673 55.16 63.4673 55.408 64.0273 55.904C64.5873 56.384 64.9473 56.952 65.1073 57.608C65.5873 56.824 66.2193 56.224 67.0033 55.808C67.8033 55.376 68.6993 55.16 69.6913 55.16C70.4913 55.16 71.1393 55.312 71.6353 55.616C72.1313 55.904 72.5073 56.288 72.7633 56.768C73.0193 57.248 73.1953 57.768 73.2913 58.328C73.3873 58.872 73.4353 59.408 73.4353 59.936V68ZM83.913 68.24C82.969 68.24 82.145 68.04 81.441 67.64C80.737 67.224 80.185 66.664 79.785 65.96V73.112H75.945V55.4H79.281V57.44C79.745 56.72 80.329 56.16 81.033 55.76C81.737 55.36 82.561 55.16 83.505 55.16C84.353 55.16 85.129 55.328 85.833 55.664C86.553 56 87.177 56.464 87.705 57.056C88.233 57.648 88.641 58.336 88.929 59.12C89.217 59.904 89.361 60.752 89.361 61.664C89.361 62.912 89.129 64.032 88.665 65.024C88.201 66.016 87.553 66.8 86.721 67.376C85.905 67.952 84.969 68.24 83.913 68.24ZM82.617 65C83.033 65 83.409 64.912 83.745 64.736C84.097 64.544 84.401 64.296 84.657 63.992C84.913 63.688 85.105 63.336 85.233 62.936C85.377 62.52 85.449 62.088 85.449 61.64C85.449 61.176 85.369 60.752 85.209 60.368C85.065 59.984 84.857 59.648 84.585 59.36C84.313 59.056 83.993 58.824 83.625 58.664C83.257 58.504 82.857 58.424 82.425 58.424C82.169 58.424 81.905 58.464 81.633 58.544C81.377 58.624 81.129 58.744 80.889 58.904C80.665 59.048 80.457 59.224 80.265 59.432C80.073 59.64 79.913 59.88 79.785 60.152V62.744C79.961 63.176 80.193 63.56 80.481 63.896C80.769 64.232 81.097 64.504 81.465 64.712C81.833 64.904 82.217 65 82.617 65ZM99.2886 58.688C98.3606 58.688 97.5206 58.84 96.7686 59.144C96.0166 59.432 95.4726 59.864 95.1366 60.44V68H91.2966V55.4H94.8246V57.944C95.2566 57.096 95.8166 56.432 96.5046 55.952C97.1926 55.472 97.9126 55.224 98.6646 55.208C98.8406 55.208 98.9686 55.208 99.0486 55.208C99.1446 55.208 99.2246 55.216 99.2886 55.232V58.688ZM106.812 68.24C105.74 68.24 104.78 68.064 103.932 67.712C103.1 67.36 102.396 66.88 101.82 66.272C101.244 65.664 100.804 64.968 100.5 64.184C100.212 63.4 100.068 62.576 100.068 61.712C100.068 60.832 100.212 60 100.5 59.216C100.804 58.432 101.244 57.736 101.82 57.128C102.396 56.52 103.1 56.04 103.932 55.688C104.78 55.336 105.74 55.16 106.812 55.16C107.884 55.16 108.836 55.336 109.668 55.688C110.5 56.04 111.204 56.52 111.78 57.128C112.356 57.736 112.796 58.432 113.1 59.216C113.404 60 113.556 60.832 113.556 61.712C113.556 62.576 113.404 63.4 113.1 64.184C112.796 64.968 112.356 65.664 111.78 66.272C111.204 66.88 110.5 67.36 109.668 67.712C108.836 68.064 107.884 68.24 106.812 68.24ZM104.004 61.712C104.004 62.368 104.124 62.944 104.364 63.44C104.62 63.936 104.956 64.32 105.372 64.592C105.788 64.864 106.268 65 106.812 65C107.34 65 107.812 64.864 108.228 64.592C108.66 64.304 108.996 63.912 109.236 63.416C109.476 62.92 109.596 62.352 109.596 61.712C109.596 61.056 109.476 60.48 109.236 59.984C108.996 59.488 108.66 59.104 108.228 58.832C107.812 58.56 107.34 58.424 106.812 58.424C106.268 58.424 105.788 58.56 105.372 58.832C104.956 59.104 104.62 59.488 104.364 59.984C104.124 60.48 104.004 61.056 104.004 61.712ZM118.303 68L113.839 55.4H117.799L120.559 64.544L123.319 55.4H126.919L122.479 68H118.303ZM133.977 68.24C132.905 68.24 131.953 68.072 131.121 67.736C130.289 67.384 129.577 66.912 128.985 66.32C128.409 65.728 127.969 65.048 127.665 64.28C127.361 63.496 127.209 62.68 127.209 61.832C127.209 60.616 127.473 59.512 128.001 58.52C128.545 57.512 129.321 56.704 130.329 56.096C131.337 55.472 132.553 55.16 133.977 55.16C135.401 55.16 136.609 55.464 137.601 56.072C138.609 56.68 139.377 57.48 139.905 58.472C140.433 59.448 140.697 60.512 140.697 61.664C140.697 61.888 140.681 62.112 140.649 62.336C140.633 62.544 140.617 62.728 140.601 62.888H131.289C131.337 63.448 131.489 63.92 131.745 64.304C132.017 64.688 132.361 64.984 132.777 65.192C133.193 65.384 133.633 65.48 134.097 65.48C134.673 65.48 135.209 65.344 135.705 65.072C136.217 64.8 136.569 64.432 136.761 63.968L140.025 64.88C139.705 65.536 139.249 66.12 138.657 66.632C138.081 67.128 137.393 67.52 136.593 67.808C135.809 68.096 134.937 68.24 133.977 68.24ZM131.193 60.536H136.665C136.601 60.008 136.449 59.552 136.209 59.168C135.969 58.768 135.649 58.464 135.249 58.256C134.849 58.032 134.409 57.92 133.929 57.92C133.433 57.92 132.985 58.032 132.585 58.256C132.201 58.464 131.889 58.768 131.649 59.168C131.409 59.552 131.257 60.008 131.193 60.536ZM147.479 69.896C147.799 69.992 148.095 70.064 148.367 70.112C148.655 70.176 148.911 70.208 149.135 70.208C149.439 70.208 149.695 70.136 149.903 69.992C150.127 69.864 150.319 69.632 150.479 69.296C150.639 68.976 150.783 68.544 150.911 68L146.111 55.4H150.071L152.999 64.064L155.495 55.4H159.119L154.319 70.04C154.095 70.728 153.751 71.336 153.287 71.864C152.823 72.392 152.263 72.8 151.607 73.088C150.951 73.392 150.231 73.544 149.447 73.544C149.111 73.544 148.783 73.512 148.463 73.448C148.143 73.4 147.815 73.312 147.479 73.184V69.896ZM166.226 68.24C165.154 68.24 164.194 68.064 163.346 67.712C162.514 67.36 161.81 66.88 161.234 66.272C160.658 65.664 160.218 64.968 159.914 64.184C159.626 63.4 159.482 62.576 159.482 61.712C159.482 60.832 159.626 60 159.914 59.216C160.218 58.432 160.658 57.736 161.234 57.128C161.81 56.52 162.514 56.04 163.346 55.688C164.194 55.336 165.154 55.16 166.226 55.16C167.298 55.16 168.25 55.336 169.082 55.688C169.914 56.04 170.618 56.52 171.194 57.128C171.77 57.736 172.21 58.432 172.514 59.216C172.818 60 172.97 60.832 172.97 61.712C172.97 62.576 172.818 63.4 172.514 64.184C172.21 64.968 171.77 65.664 171.194 66.272C170.618 66.88 169.914 67.36 169.082 67.712C168.25 68.064 167.298 68.24 166.226 68.24ZM163.418 61.712C163.418 62.368 163.538 62.944 163.778 63.44C164.034 63.936 164.37 64.32 164.786 64.592C165.202 64.864 165.682 65 166.226 65C166.754 65 167.226 64.864 167.642 64.592C168.074 64.304 168.41 63.912 168.65 63.416C168.89 62.92 169.01 62.352 169.01 61.712C169.01 61.056 168.89 60.48 168.65 59.984C168.41 59.488 168.074 59.104 167.642 58.832C167.226 58.56 166.754 58.424 166.226 58.424C165.682 58.424 165.202 58.56 164.786 58.832C164.37 59.104 164.034 59.488 163.778 59.984C163.538 60.48 163.418 61.056 163.418 61.712ZM174.755 63.464V55.4H178.595V62.624C178.595 63.392 178.747 63.984 179.051 64.4C179.355 64.8 179.787 65 180.347 65C180.699 65 181.035 64.944 181.355 64.832C181.675 64.704 181.987 64.504 182.291 64.232C182.595 63.96 182.867 63.608 183.107 63.176V55.4H186.947V63.728C186.947 64.112 187.003 64.384 187.115 64.544C187.243 64.688 187.459 64.776 187.763 64.808V68C187.411 68.064 187.099 68.112 186.827 68.144C186.571 68.176 186.339 68.192 186.131 68.192C185.459 68.192 184.923 68.056 184.523 67.784C184.123 67.496 183.875 67.096 183.779 66.584L183.707 65.816C183.131 66.648 182.411 67.264 181.547 67.664C180.699 68.048 179.747 68.24 178.691 68.24C177.411 68.24 176.435 67.832 175.763 67.016C175.091 66.2 174.755 65.016 174.755 63.464ZM197.914 58.688C196.986 58.688 196.146 58.84 195.394 59.144C194.642 59.432 194.098 59.864 193.762 60.44V68H189.922V55.4H193.45V57.944C193.882 57.096 194.442 56.432 195.13 55.952C195.818 55.472 196.538 55.224 197.29 55.208C197.466 55.208 197.594 55.208 197.674 55.208C197.77 55.208 197.85 55.216 197.914 55.232V58.688ZM210.641 68.24C209.569 68.24 208.617 68.072 207.785 67.736C206.953 67.384 206.241 66.912 205.649 66.32C205.073 65.728 204.633 65.048 204.329 64.28C204.025 63.496 203.873 62.68 203.873 61.832C203.873 60.616 204.137 59.512 204.665 58.52C205.209 57.512 205.985 56.704 206.993 56.096C208.001 55.472 209.217 55.16 210.641 55.16C212.065 55.16 213.273 55.464 214.265 56.072C215.273 56.68 216.041 57.48 216.569 58.472C217.097 59.448 217.361 60.512 217.361 61.664C217.361 61.888 217.345 62.112 217.313 62.336C217.297 62.544 217.281 62.728 217.265 62.888H207.953C208.001 63.448 208.153 63.92 208.409 64.304C208.681 64.688 209.025 64.984 209.441 65.192C209.857 65.384 210.297 65.48 210.761 65.48C211.337 65.48 211.873 65.344 212.369 65.072C212.881 64.8 213.233 64.432 213.425 63.968L216.689 64.88C216.369 65.536 215.913 66.12 215.321 66.632C214.745 67.128 214.057 67.52 213.257 67.808C212.473 68.096 211.601 68.24 210.641 68.24ZM207.857 60.536H213.329C213.265 60.008 213.113 59.552 212.873 59.168C212.633 58.768 212.313 58.464 211.913 58.256C211.513 58.032 211.073 57.92 210.593 57.92C210.097 57.92 209.649 58.032 209.249 58.256C208.865 58.464 208.553 58.768 208.313 59.168C208.073 59.552 207.921 60.008 207.857 60.536ZM219.87 68V59.336H218.262V56.432H219.87V56.024C219.87 55.064 220.054 54.216 220.422 53.48C220.79 52.728 221.31 52.144 221.982 51.728C222.67 51.296 223.47 51.08 224.382 51.08C224.974 51.08 225.566 51.16 226.158 51.32C226.766 51.464 227.406 51.68 228.078 51.968L227.334 54.896C226.982 54.72 226.614 54.584 226.23 54.488C225.846 54.376 225.494 54.32 225.174 54.32C224.934 54.32 224.718 54.36 224.526 54.44C224.35 54.52 224.198 54.632 224.07 54.776C223.958 54.904 223.87 55.064 223.806 55.256C223.742 55.448 223.71 55.656 223.71 55.88V56.432H226.638V59.336H223.71V68H219.87ZM226.47 59.336H224.886V56.432H226.47V55.4C226.47 54.648 226.598 53.96 226.854 53.336C227.11 52.712 227.47 52.168 227.934 51.704C228.414 51.24 228.99 50.88 229.662 50.624C230.334 50.368 231.078 50.24 231.894 50.24C232.502 50.24 233.086 50.312 233.646 50.456C234.206 50.584 234.758 50.776 235.302 51.032C235.846 51.288 236.39 51.6 236.934 51.968L235.446 54.872C234.982 54.44 234.454 54.104 233.862 53.864C233.286 53.608 232.718 53.48 232.158 53.48C231.758 53.48 231.422 53.56 231.15 53.72C230.878 53.864 230.67 54.072 230.526 54.344C230.382 54.616 230.31 54.92 230.31 55.256V56.432H237.27V68H233.43V59.336H230.31V68H226.47V59.336ZM245.914 68.24C244.842 68.24 243.89 68.064 243.058 67.712C242.226 67.36 241.514 66.88 240.922 66.272C240.346 65.664 239.906 64.968 239.602 64.184C239.298 63.4 239.146 62.568 239.146 61.688C239.146 60.536 239.41 59.464 239.938 58.472C240.482 57.48 241.258 56.68 242.266 56.072C243.274 55.464 244.49 55.16 245.914 55.16C247.354 55.16 248.57 55.472 249.562 56.096C250.57 56.704 251.322 57.504 251.818 58.496L248.074 59.624C247.834 59.24 247.522 58.944 247.138 58.736C246.77 58.528 246.354 58.424 245.89 58.424C245.362 58.424 244.882 58.56 244.45 58.832C244.034 59.104 243.698 59.48 243.442 59.96C243.202 60.44 243.082 61.016 243.082 61.688C243.082 62.344 243.21 62.92 243.466 63.416C243.722 63.912 244.058 64.304 244.474 64.592C244.89 64.864 245.362 65 245.89 65C246.21 65 246.506 64.952 246.778 64.856C247.066 64.744 247.322 64.592 247.546 64.4C247.786 64.208 247.97 63.992 248.098 63.752L251.842 64.904C251.538 65.544 251.098 66.12 250.522 66.632C249.962 67.128 249.298 67.52 248.53 67.808C247.762 68.096 246.89 68.24 245.914 68.24ZM253.578 68V55.4H257.418V68H253.578ZM253.578 53.96V50.48H257.418V53.96H253.578ZM266.071 68.24C264.999 68.24 264.047 68.072 263.215 67.736C262.383 67.384 261.671 66.912 261.079 66.32C260.503 65.728 260.063 65.048 259.759 64.28C259.455 63.496 259.303 62.68 259.303 61.832C259.303 60.616 259.567 59.512 260.095 58.52C260.639 57.512 261.415 56.704 262.423 56.096C263.431 55.472 264.647 55.16 266.071 55.16C267.495 55.16 268.703 55.464 269.695 56.072C270.703 56.68 271.471 57.48 271.999 58.472C272.527 59.448 272.791 60.512 272.791 61.664C272.791 61.888 272.775 62.112 272.743 62.336C272.727 62.544 272.711 62.728 272.695 62.888H263.383C263.431 63.448 263.583 63.92 263.839 64.304C264.111 64.688 264.455 64.984 264.871 65.192C265.287 65.384 265.727 65.48 266.191 65.48C266.767 65.48 267.303 65.344 267.799 65.072C268.311 64.8 268.663 64.432 268.855 63.968L272.119 64.88C271.799 65.536 271.343 66.12 270.751 66.632C270.175 67.128 269.487 67.52 268.687 67.808C267.903 68.096 267.031 68.24 266.071 68.24ZM263.287 60.536H268.759C268.695 60.008 268.543 59.552 268.303 59.168C268.063 58.768 267.743 58.464 267.343 58.256C266.943 58.032 266.503 57.92 266.023 57.92C265.527 57.92 265.079 58.032 264.679 58.256C264.295 58.464 263.983 58.768 263.743 59.168C263.503 59.552 263.351 60.008 263.287 60.536ZM286.675 68H282.835V60.92C282.835 60.088 282.675 59.488 282.355 59.12C282.051 58.736 281.643 58.544 281.131 58.544C280.779 58.544 280.419 58.64 280.051 58.832C279.683 59.024 279.347 59.288 279.043 59.624C278.755 59.96 278.531 60.344 278.371 60.776V68H274.531V55.4H277.987V57.512C278.307 57.016 278.707 56.592 279.187 56.24C279.667 55.888 280.219 55.624 280.843 55.448C281.467 55.256 282.147 55.16 282.883 55.16C283.699 55.16 284.355 55.312 284.851 55.616C285.363 55.904 285.747 56.288 286.003 56.768C286.275 57.248 286.451 57.768 286.531 58.328C286.627 58.872 286.675 59.408 286.675 59.936V68ZM295.25 68.24C294.178 68.24 293.226 68.064 292.394 67.712C291.562 67.36 290.85 66.88 290.258 66.272C289.682 65.664 289.242 64.968 288.938 64.184C288.634 63.4 288.482 62.568 288.482 61.688C288.482 60.536 288.746 59.464 289.274 58.472C289.818 57.48 290.594 56.68 291.602 56.072C292.61 55.464 293.826 55.16 295.25 55.16C296.69 55.16 297.906 55.472 298.898 56.096C299.906 56.704 300.658 57.504 301.154 58.496L297.41 59.624C297.17 59.24 296.858 58.944 296.474 58.736C296.106 58.528 295.69 58.424 295.226 58.424C294.698 58.424 294.218 58.56 293.786 58.832C293.37 59.104 293.034 59.48 292.778 59.96C292.538 60.44 292.418 61.016 292.418 61.688C292.418 62.344 292.546 62.92 292.802 63.416C293.058 63.912 293.394 64.304 293.81 64.592C294.226 64.864 294.698 65 295.226 65C295.546 65 295.842 64.952 296.114 64.856C296.402 64.744 296.658 64.592 296.882 64.4C297.122 64.208 297.306 63.992 297.434 63.752L301.178 64.904C300.874 65.544 300.434 66.12 299.858 66.632C299.298 67.128 298.634 67.52 297.866 67.808C297.098 68.096 296.226 68.24 295.25 68.24ZM302.752 69.896C303.072 69.992 303.368 70.064 303.64 70.112C303.928 70.176 304.184 70.208 304.408 70.208C304.712 70.208 304.968 70.136 305.176 69.992C305.4 69.864 305.592 69.632 305.752 69.296C305.912 68.976 306.056 68.544 306.184 68L301.384 55.4H305.344L308.272 64.064L310.768 55.4H314.392L309.592 70.04C309.368 70.728 309.024 71.336 308.56 71.864C308.096 72.392 307.536 72.8 306.88 73.088C306.224 73.392 305.504 73.544 304.72 73.544C304.384 73.544 304.056 73.512 303.736 73.448C303.416 73.4 303.088 73.312 302.752 73.184V69.896Z" fill="black"/>
</g>
<defs>
<filter id="filter0_d_213_78" x="43.632" y="50.24" width="271.76" height="32.304" filterUnits="userSpaceOnUse" color-interpolation-filters="sRGB">
<feFlood flood-opacity="0" result="BackgroundImageFix"/>
<feColorMatrix in="SourceAlpha" type="matrix" values="0 0 0 0 0 0 0 0 0 0 0 0 0 0 0 0 0 0 127 0" result="hardAlpha"/>
<feOffset dx="-1" dy="7"/>
<feGaussianBlur stdDeviation="1"/>
<feComposite in2="hardAlpha" operator="out"/>
<feColorMatrix type="matrix" values="0 0 0 0 0 0 0 0 0 0 0 0 0 0 0 0 0 0 0.25 0"/>
<feBlend mode="normal" in2="BackgroundImageFix" result="effect1_dropShadow_213_78"/>
<feBlend mode="normal" in="SourceGraphic" in2="effect1_dropShadow_213_78" result="shape"/>
</filter>
</defs>
</svg>
