<svg width="360" height="93" viewBox="0 0 360 93" fill="none" xmlns="http://www.w3.org/2000/svg">
<path d="M0 2L3.54902 14.3627C7.09804 26.7254 14.1961 51.4507 21.2941 62.9494C28.3922 74.448 35.4902 72.7199 42.5882 62.0961C49.6863 51.4724 56.7843 31.9529 63.8824 34.0024C70.9804 36.0518 78.0784 59.6701 85.1765 69.7796C92.2745 79.889 99.3725 76.4896 106.471 68.0379C113.569 59.5862 120.667 46.0822 127.765 39.2754C134.863 32.4687 141.961 32.3591 149.059 38.2852C156.157 44.2112 163.255 56.1728 170.353 54.0811C177.451 51.9893 184.549 35.8442 191.647 38.4869C198.745 41.1296 205.843 62.5602 212.941 63.7346C220.039 64.9089 227.137 45.8271 234.235 40.4047C241.333 34.9823 248.431 43.2193 255.529 50.3454C262.627 57.4715 269.725 63.4866 276.824 65.3333C283.922 67.1801 291.02 64.8584 298.118 57.6706C305.216 50.4827 312.314 38.4287 319.412 31.1248C326.51 23.8209 333.608 21.2671 340.706 25.7595C347.804 30.2518 354.902 41.7903 358.451 47.5595L362 53.3287" stroke="#1BFFC3" stroke-opacity="0.3" stroke-width="6"/>
<path d="M362 2L353.381 15.8748C344.762 29.7495 327.524 57.499 310.286 70.6601C293.048 83.8212 275.81 82.3939 258.571 71.1551C241.333 59.9163 224.095 38.8661 206.857 41.6052C189.619 44.3443 172.381 70.8728 155.143 82.5017C137.905 94.1306 120.667 90.8599 103.429 82.0168C86.1905 73.1737 68.9524 58.7582 51.7143 51.7293C34.4762 44.7005 17.2381 45.0584 8.61908 45.2373L1.62125e-05 45.4162" stroke="#1BFFC3" stroke-width="5"/>
</svg>
